        <svg style="width: 100px;" id="Layer_1" class="img-mobile-svg m-auto" data-name="Layer 1"
            xmlns="http://www.w3.org/2000/svg" viewBox="0 0 388.34 110.8">
            <defs>
                <style>
                    .cls-1 {
                        fill: #86c240;
                    }

                    .cls-2 {
                        fill: none;
                        stroke: #231f20;
                        stroke-miterlimit: 10;
                    }

                    .cls-3 {
                        fill: #1c75bc;
                    }

                    .cls-4 {
                        fill: #86c240;
                    }

                    .cls-5 {
                        fill: #414042;
                    }
                </style>
            </defs>
            <path class="cls-1"
                d="M376.06,38V41h-.94V34h2a4.36,4.36,0,0,1,1.15.14,2.16,2.16,0,0,1,.79.39,1.55,1.55,0,0,1,.47.61,2.09,2.09,0,0,1,.15.81,2.26,2.26,0,0,1-.11.69,2.11,2.11,0,0,1-.34.58,2,2,0,0,1-.55.44,2.56,2.56,0,0,1-.72.27,1.1,1.1,0,0,1,.31.3l2,2.78h-.84a.42.42,0,0,1-.38-.2l-1.82-2.5a.42.42,0,0,0-.18-.17.56.56,0,0,0-.29-.05Zm0-.69h1a2.63,2.63,0,0,0,.73-.1,1.42,1.42,0,0,0,.53-.29,1.13,1.13,0,0,0,.32-.43,1.48,1.48,0,0,0,.11-.57,1.13,1.13,0,0,0-.41-.94,2,2,0,0,0-1.23-.32h-1Z">
            </path>
            <circle class="cls-2" cx="377.32" cy="37.46" r="6.3"></circle>
            <path class="cls-1"
                d="M310.22,100.85V88.45h1.51v5.1a4.25,4.25,0,0,1,1.21-1,3.49,3.49,0,0,1,2.91-.1,2.72,2.72,0,0,1,1,.83,4,4,0,0,1,.65,1.37,7,7,0,0,1,.23,1.87,5.9,5.9,0,0,1-.26,1.76,4.14,4.14,0,0,1-.73,1.4,3.32,3.32,0,0,1-1.16.94,3.49,3.49,0,0,1-1.54.34,2.87,2.87,0,0,1-1.4-.32,3.19,3.19,0,0,1-1-.9l-.08.78a.36.36,0,0,1-.38.32Zm3.8-7.47a2.38,2.38,0,0,0-1.28.34,3.47,3.47,0,0,0-1,1v4.12a2.34,2.34,0,0,0,.89.79,2.64,2.64,0,0,0,1.1.22,2.16,2.16,0,0,0,1.84-.85,4,4,0,0,0,.64-2.42,5.92,5.92,0,0,0-.15-1.43,2.69,2.69,0,0,0-.43-1,1.6,1.6,0,0,0-.68-.56A2.22,2.22,0,0,0,314,93.38Z">
            </path>
            <path class="cls-1"
                d="M323.93,103.37a.77.77,0,0,1-.19.27.54.54,0,0,1-.35.1h-1.11l1.56-3.39-3.52-8h1.3a.4.4,0,0,1,.3.1.54.54,0,0,1,.16.21L324.36,98a3.3,3.3,0,0,1,.13.37c0,.13.07.25.1.38l.12-.38c0-.12.08-.25.13-.38l2.22-5.36a.46.46,0,0,1,.17-.22.43.43,0,0,1,.26-.09h1.2Z">
            </path>
            <path class="cls-1"
                d="M343.71,100.85h-.66a.74.74,0,0,1-.36-.07.34.34,0,0,1-.17-.28l-.17-.8c-.23.21-.45.39-.66.55a3.83,3.83,0,0,1-.67.4,3.76,3.76,0,0,1-.76.25,4,4,0,0,1-.89.08,2.83,2.83,0,0,1-.93-.14,1.95,1.95,0,0,1-1.26-1.12,2.56,2.56,0,0,1-.19-1,1.82,1.82,0,0,1,.28-1,2.38,2.38,0,0,1,.9-.84,5.69,5.69,0,0,1,1.62-.59,10.67,10.67,0,0,1,2.45-.24v-.66a2.32,2.32,0,0,0-.43-1.52,1.54,1.54,0,0,0-1.26-.51,2.74,2.74,0,0,0-.92.14,3.94,3.94,0,0,0-.65.31l-.47.31a.62.62,0,0,1-.39.14.43.43,0,0,1-.27-.08.7.7,0,0,1-.18-.2l-.27-.48a5.12,5.12,0,0,1,1.53-1,4.78,4.78,0,0,1,1.81-.33,3.34,3.34,0,0,1,1.27.23,2.62,2.62,0,0,1,.93.66,2.69,2.69,0,0,1,.58,1,4.23,4.23,0,0,1,.19,1.31Zm-3.89-.92a3.26,3.26,0,0,0,.73-.08,2.64,2.64,0,0,0,.61-.23,2.75,2.75,0,0,0,.56-.35,4.62,4.62,0,0,0,.52-.48V97a9.81,9.81,0,0,0-1.76.13,5,5,0,0,0-1.18.34,1.69,1.69,0,0,0-.66.5,1.07,1.07,0,0,0-.21.64,1.51,1.51,0,0,0,.11.59,1,1,0,0,0,.3.4,1.27,1.27,0,0,0,.43.23A1.93,1.93,0,0,0,339.82,99.93Z">
            </path>
            <path class="cls-1"
                d="M346.81,92.32H348a.46.46,0,0,1,.46.31l1.63,5.49c.05.2.09.4.13.59s.07.37.1.56l.15-.56.18-.59,1.8-5.52a.41.41,0,0,1,.15-.21.39.39,0,0,1,.26-.09h.65a.44.44,0,0,1,.43.3l1.76,5.52c.06.2.12.39.17.58s.09.38.13.57c0-.19.07-.38.11-.59s.1-.39.15-.56l1.66-5.49a.5.5,0,0,1,.16-.22.47.47,0,0,1,.28-.09h1.13l-2.76,8.53h-1.19c-.14,0-.25-.1-.3-.29l-1.89-5.78c0-.13-.08-.26-.11-.39s-.05-.27-.08-.39l-.09.39a2.6,2.6,0,0,1-.1.4L351,100.56a.35.35,0,0,1-.34.29h-1.13Z">
            </path>
            <path class="cls-1"
                d="M362.89,100.85V88.45h1.5v5a4.89,4.89,0,0,1,1.21-.93,3.25,3.25,0,0,1,1.53-.34,3,3,0,0,1,1.24.23,2.42,2.42,0,0,1,.89.65,2.89,2.89,0,0,1,.54,1,4.25,4.25,0,0,1,.19,1.32v5.43h-1.5V95.42a2.29,2.29,0,0,0-.44-1.5,1.66,1.66,0,0,0-1.35-.54,2.58,2.58,0,0,0-1.25.32,3.9,3.9,0,0,0-1.06.87v6.28Z">
            </path>
            <path class="cls-1"
                d="M128.24,63.26,138,20.63h12.51L136.16,83.4h-13l-17.6-42.61L95.63,83.4H83.29L97.84,20.63h12.8Z">
            </path>
            <path class="cls-1"
                d="M196.45,63.86H162.86q.09,4.78,2.7,7.3c1.73,1.68,4.17,2.52,7.29,2.52q6.36,0,9.46-5H195A23.47,23.47,0,0,1,186.11,80a24.49,24.49,0,0,1-14.32,4.42q-9.37,0-15.12-5.79t-5.75-15.42A28,28,0,0,1,158,44.11Q165.15,36,176.65,36q9.19,0,15,5.74a19.7,19.7,0,0,1,5.79,14.59A30.81,30.81,0,0,1,196.45,63.86Zm-31.82-9H185.4a8.35,8.35,0,0,0-2.52-6.37q-2.52-2.38-7.11-2.39a11.17,11.17,0,0,0-7,2.39A11.5,11.5,0,0,0,164.63,54.85Z">
            </path>
            <path class="cls-1"
                d="M224.48,72.26l-2.48,11a22.07,22.07,0,0,1-5.12.44q-5.49,0-8.76-2.83t-3.27-8.31a25.3,25.3,0,0,1,.69-5.4L210.18,47h-6.3l2.3-9.9h6.28l2.65-11.5h12.52L225,37.08h7.69l-2.3,9.9H222.7l-4.88,21.21a8.34,8.34,0,0,0-.24,1.77q0,2.75,3.89,2.75Z">
            </path>
            <path class="cls-3"
                d="M249.27,59.62,243.81,83.4H230.93l14.41-62.77H269.6q9.18,0,14.47,4.95a16.47,16.47,0,0,1,5.3,12.56q0,10.43-7.36,16T263.2,59.62ZM252,47.77H266a11.75,11.75,0,0,0,7.33-2.21,7.8,7.8,0,0,0,2.92-6.63,5.94,5.94,0,0,0-2-4.64,8.37,8.37,0,0,0-5.74-1.81H255.51Z">
            </path>
            <path class="cls-3"
                d="M324.61,36.72,322,48.48a12.36,12.36,0,0,0-2.47-.26q-11.19,0-14.48,12L300.12,83.4H287.6l9.76-46.32h12.52l-1.28,6.05q5.4-6.5,14.59-6.49Z">
            </path>
            <path class="cls-3"
                d="M345.6,84.46q-9.74,0-16.05-5.65t-6.32-15.39A27.83,27.83,0,0,1,330.48,44q7.25-8,19.27-8,9.72,0,16.05,5.65t6.32,15.39a27.87,27.87,0,0,1-7.25,19.4Q357.61,84.47,345.6,84.46Zm.61-11a11.9,11.9,0,0,0,9.6-4.55,16.76,16.76,0,0,0,3.75-11,11.41,11.41,0,0,0-2.65-7.69q-2.66-3.09-7.78-3.09a11.89,11.89,0,0,0-9.59,4.55,16.73,16.73,0,0,0-3.76,11,11.44,11.44,0,0,0,2.65,7.69C340.2,72.38,342.8,73.41,346.21,73.41Z">
            </path>
            <path class="cls-3"
                d="M75.86,29.26c.4.78.77,1.57,1.11,2.38A37.78,37.78,0,0,1,62.13,78.4a7.07,7.07,0,1,1-7.47-12,23.73,23.73,0,0,0,9.28-29.24A23.37,23.37,0,0,0,55.7,27a2.38,2.38,0,0,0-2-.32A2.36,2.36,0,0,0,53,30.86a18.87,18.87,0,0,1-3.42,32.87,2.38,2.38,0,0,1-3.1-1.26l-3.05-7.23a9,9,0,0,1-6.75-16l-2.07-4.87A14.15,14.15,0,0,0,34.15,58a7,7,0,0,1,2.5,8.44,7.05,7.05,0,0,1-10.57,3.16,28.19,28.19,0,0,1-8.9-10l-4.35,1.84,0,.06-4.31,1.9c-.39-.74-.73-1.5-1.06-2.27A37.79,37.79,0,0,1,22.33,14.29a7.08,7.08,0,1,1,7.47,12,23.58,23.58,0,0,0-1,39.39,2.31,2.31,0,0,0,2,.31,2.35,2.35,0,0,0,.69-4.17A18.87,18.87,0,0,1,34.87,29,2.38,2.38,0,0,1,38,30.23L41,37.45a9,9,0,0,1,6.76,16l2.06,4.87a14.15,14.15,0,0,0,.47-23.55,7.07,7.07,0,0,1,8.08-11.61,28.29,28.29,0,0,1,8.89,10.06l4.36-1.84-.1-.18ZM59.65,74.4A33.29,33.29,0,0,0,73.47,35.68l-4.36,1.84a28.36,28.36,0,0,1-12,32.88,2.35,2.35,0,0,0-.94,2.91,2.29,2.29,0,0,0,1.45,1.34A2.41,2.41,0,0,0,59.65,74.4ZM44.14,50.89a4.9,4.9,0,1,0-6.42-2.6A4.88,4.88,0,0,0,44.14,50.89ZM27.32,22.3a2.34,2.34,0,0,0,.93-2.92,2.26,2.26,0,0,0-1.45-1.33,2.37,2.37,0,0,0-2,.25A33.27,33.27,0,0,0,11,57l4.36-1.84a28.32,28.32,0,0,1,12-32.87Z">
            </path>
            <path class="cls-4"
                d="M56.39,11.4A37.44,37.44,0,0,1,75.86,29.26l-4.32,1.9A32.8,32.8,0,0,0,54.62,15.77a2.36,2.36,0,1,1,1.77-4.37Z">
            </path>
            <path class="cls-4" d="M51.08,10.12a2.75,2.75,0,1,1-3.6-1.45A2.74,2.74,0,0,1,51.08,10.12Z"></path>
            <circle class="cls-5" cx="42.23" cy="46.35" r="2.45"></circle>
            <path class="cls-4" d="M38.87,80.9a2.74,2.74,0,1,1-3.6-1.46A2.75,2.75,0,0,1,38.87,80.9Z"></path>
            <path class="cls-4"
                d="M29.84,76.92A2.38,2.38,0,0,1,31.15,80a2.36,2.36,0,0,1-3.07,1.3,37.4,37.4,0,0,1-19.53-18l4.31-1.9A32.66,32.66,0,0,0,29.84,76.92Z">
            </path>
        </svg>
